<?xml version="1.0" encoding="utf-8"?>
<!-- Generator: Adobe Illustrator 15.1.0, SVG Export Plug-In  -->
<!DOCTYPE svg PUBLIC "-//W3C//DTD SVG 1.1//EN" "http://www.w3.org/Graphics/SVG/1.1/DTD/svg11.dtd" [
	<!ENTITY ns_flows "http://ns.adobe.com/Flows/1.0/">
]>
<svg version="1.1"
	 xmlns="http://www.w3.org/2000/svg" xmlns:xlink="http://www.w3.org/1999/xlink" xmlns:a="http://ns.adobe.com/AdobeSVGViewerExtensions/3.0/"
	 x="0px" y="0px" width="182px" height="182px" viewBox="0 0 182 182" enable-background="new 0 0 182 182" xml:space="preserve">
<defs>
</defs>
<path fill="#252D3A" stroke="#000000" stroke-miterlimit="10" d="M47.064,11.908C28.398,22.315,13.625,39.402,6.159,59.439
	c-8.147,21.869-7.49,46.598,1.924,67.958c8.883,20.155,25.061,36.643,45.049,45.898c20.713,9.592,44.696,10.871,66.361,3.716
	c20.22-6.678,37.611-20.624,48.755-38.744c11.893-19.338,16.005-42.824,11.552-65.08c-4.332-21.647-16.811-41.255-34.433-54.526
	C128.962,6.306,108.188-0.361,87.64,0.641C87.516,0.646,95.544,0.5,91.022,0.5C64.931,1.466,47.064,11.908,47.064,11.908z
	 M4.587,91.064c0-32.418,17.942-60.719,44.414-75.509c11.18-0.261,22.799,2.369,31.785,9.287
	c8.405,6.47,14.842,16.508,16.196,27.128c0.393,3.082,0.318,6.229-0.329,9.272c-0.501,2.516-0.99,5.056-0.147,7.566
	c0.385,1.977,1.519,3.934,2.253,5.806c0.811,2.067,1.622,4.134,2.431,6.201c1.674,4.275,3.352,8.55,4.992,12.838
	c0.797,2.083,1.585,4.169,2.359,6.26c0.713,1.923,1.58,3.868,2.137,5.842c0.348,1.23,0.371,3.118-0.508,4.151
	c-0.77,0.904-2.055,1.097-3.166,1.242c-1.899,0.236-4.006,0.481-5.638,1.568c-1.642,1.093-1.468,2.51-1.249,4.203
	c0.662,5.113,0.781,10.58-0.054,15.673c-0.339,2.457-0.81,4.385-1.358,5.893c-1.154,4.388-3.302,4.959-4.777,5.145
	c-3.199,0.156-6.413,0.019-9.583-0.443c-1.513-0.221-3.018-0.508-4.499-0.888c-1.205-0.309-2.749-0.733-3.856,0.078
	c-1.327,0.973-1.612,3.092-1.957,4.589c-0.39,1.688-0.789,3.375-1.192,5.061c-1.644,6.881-3.338,13.75-5.043,20.616
	c-0.131,0.525-0.261,1.051-0.392,1.576c-17.717-5.039-33.57-15.849-44.824-30.42C11.089,128.92,4.715,110.454,4.589,91.653
	c-0.021-3.064-0.002-6.213-0.002-9.243c0,5.02,0,10.039,0,15.059c0,1.914,0,3.893,0,5.776C4.587,99.185,4.587,95.125,4.587,91.064
	C4.587,58.646,4.587,130.54,4.587,91.064z M176.304,105.146c-1.152,7.004-3.147,13.727-5.882,20.06
	c-1.679,4.323-4.534,8.913-4.468,8.908c-11.828,20.5-32.145,35.71-55.211,41.108c-12.305,2.88-25.031,2.924-37.407,0.447
	c-0.366-0.073-3.452-0.52-3.396-0.87c0.095-0.585,0.271-1.164,0.418-1.737c0.94-3.66,1.88-7.319,2.783-10.989
	c0.867-3.523,1.711-7.052,2.518-10.589c0.24-0.687,0.495-2.543,1.08-4.148c0.748-2.773,0.435-3.523,7.731-2.134
	c2.63,0.303,5.916,0.583,9.29,0.429c1.625-0.188,3.271-0.719,4.472-1.875c1.048-0.941,1.574-2.517,2.011-3.81
	c0.582-1.722,1.01-3.505,1.301-5.298c0.649-4.02,0.895-8.08,0.732-12.149c0.017-1.315-0.039-2.529-0.19-3.562
	c-0.009-1.875-0.495-4.12,1.644-5.004c0.797-0.33,1.668-0.425,2.518-0.515c1.131-0.233,2.264-0.456,3.395-0.692
	c0.93-0.376,1.779-0.891,2.422-1.663c0.942-1.154,1.021-3.038,0.875-4.142c0.049-0.922-13.959-37.427-14.096-37.929
	c-1.438-4.367,0.02-5.242,0.59-11.366c0.593-11.86-5.246-23.313-13.641-31.454c-6.339-6.148-14.57-9.978-23.206-11.575
	c-2.467-0.456-4.968-0.739-7.476-0.83c-0.7-0.024-1.401-0.034-2.102-0.025c-0.131,0.002-0.667-0.073-0.772,0.009
	c11.459-4.649,23.458-8.486,35.897-9.059c12.114-0.558,24.371,1.756,35.571,6.361c18.726,7.699,34.517,22.099,43.928,40.022
	c4.809,9.156,7.904,19.188,9.164,29.45c1.115,9.088,0.56,18.026-0.889,27.033c0.175-1.089,0.352-2.179,0.537-3.267
	C176.396,104.576,176.351,104.861,176.304,105.146C175.151,112.149,176.938,101.291,176.304,105.146z"/>
<path d="M63.028,98.68c-0.2-0.141-0.283-0.44-0.2-0.73l0.077-0.258c0.111-0.383,0.217-0.823,0.297-1.3
	c0.061-0.366,0.343-0.518,0.51-0.547l0.917-0.162c1.47-0.259,2.057-1.681,1.822-3.012l-0.65-3.689
	c-0.247-1.398-1.302-2.121-2.685-1.876l-0.895,0.158c-0.216,0.038-0.515-0.201-0.672-0.484c-0.314-0.567-0.616-1.07-0.911-1.482
	c-0.184-0.256-0.216-0.603-0.071-0.81l0.507-0.738c0.388-0.556,0.537-1.233,0.419-1.9s-0.489-1.255-1.043-1.642l-3.073-2.155
	c-0.556-0.391-1.23-0.539-1.897-0.421c-0.668,0.118-1.25,0.487-1.637,1.042l-0.505,0.721c-0.108,0.157-0.279,0.206-0.372,0.223
	c-0.109,0.019-0.225,0.015-0.334-0.018c-0.531-0.153-1.062-0.291-1.663-0.389c-0.271-0.045-0.492-0.228-0.541-0.5l-0.151-0.857
	c-0.236-1.337-1.576-2.353-3.031-2.097l-3.692,0.651c-1.39,0.245-2.097,1.577-1.854,2.958l0.151,0.857
	c0.041,0.229-0.204,0.529-0.479,0.682c-0.523,0.294-1.043,0.606-1.479,0.921c-0.109,0.077-0.248,0.132-0.373,0.154
	c-0.116,0.021-0.292,0.024-0.436-0.075l-0.724-0.502c-0.556-0.39-1.231-0.536-1.9-0.418c-0.667,0.118-1.252,0.487-1.64,1.043
	l-2.152,3.075c-0.802,1.146-0.522,2.731,0.623,3.534l0.731,0.511c0.202,0.139,0.289,0.433,0.211,0.708
	c-0.167,0.598-0.271,1.306-0.352,1.809c-0.047,0.315-0.249,0.642-0.464,0.68l-0.896,0.158c-1.417,0.25-2.414,1.379-2.175,2.734
	l0.651,3.689c0.226,1.283,1.572,2.414,3.037,2.156l0.916-0.161c0.169-0.03,0.484,0.014,0.651,0.313
	c0.29,0.516,0.594,0.962,0.9,1.385c0.135,0.187,0.233,0.501,0.07,0.736l-0.551,0.776c-0.8,1.145-0.52,2.73,0.624,3.532l3.071,2.147
	c0.554,0.389,1.228,0.542,1.896,0.424c0.669-0.118,1.251-0.491,1.639-1.049l0.551-0.783c0.104-0.147,0.264-0.205,0.378-0.225
	c0.115-0.02,0.235-0.013,0.351,0.018c0.474,0.132,1.079,0.235,1.708,0.337c0.317,0.052,0.646,0.245,0.687,0.478l0.167,0.95
	c0.234,1.325,1.352,2.729,2.811,2.473l3.692-0.651c1.358-0.239,2.322-1.921,2.073-3.333l-0.167-0.95
	c-0.048-0.273,0.089-0.517,0.318-0.646c0.54-0.3,1.012-0.618,1.39-0.89c0.101-0.069,0.222-0.121,0.334-0.14
	c0.11-0.02,0.275-0.021,0.417,0.076l0.784,0.555c0.556,0.39,1.23,0.541,1.895,0.424c0.667-0.118,1.248-0.49,1.637-1.046l2.148-3.069
	c0.389-0.556,0.538-1.23,0.419-1.897c-0.118-0.667-0.488-1.25-1.043-1.638L63.028,98.68z M61.652,100.644l0.773,0.541
	c0.033,0.023,0.053,0.053,0.06,0.092c0.007,0.037-0.001,0.072-0.024,0.104l-2.146,3.069c-0.044,0.064-0.135,0.075-0.186,0.039
	l-0.782-0.555c-0.642-0.449-1.426-0.62-2.211-0.481c-0.464,0.082-0.915,0.275-1.305,0.555c-0.34,0.241-0.705,0.497-1.139,0.739
	c-1.129,0.628-1.704,1.862-1.477,3.15l0.167,0.946c0.021,0.118-0.098,0.631-0.214,0.652l-3.595,0.634
	c-0.063,0.011-0.167-0.428-0.192-0.576l-0.167-0.95c-0.219-1.242-1.293-2.218-2.627-2.437c-0.542-0.086-1.008-0.179-1.396-0.287
	c-0.458-0.127-0.956-0.154-1.419-0.072c-0.793,0.14-1.48,0.572-1.931,1.216l-0.55,0.784c-0.043,0.065-0.132,0.082-0.195,0.036
	l-3.072-2.146c-0.063-0.042-0.078-0.125-0.041-0.177l0.552-0.771c0.734-1.051,0.702-2.432-0.084-3.515
	c-0.263-0.368-0.521-0.738-0.75-1.145c-0.624-1.107-1.863-1.687-3.151-1.459l-0.875,0.154c-0.068,0.012-0.199-0.175-0.221-0.303
	l-0.646-3.672c0.021-0.012,0.063-0.012,0.121-0.022l0.895-0.158c1.238-0.218,2.211-1.283,2.424-2.631
	c0.071-0.441,0.166-1.012,0.3-1.49c0.353-1.258-0.106-2.597-1.148-3.327l-0.729-0.513c-0.063-0.042-0.079-0.133-0.034-0.193
	l2.151-3.075c0.044-0.061,0.132-0.078,0.199-0.032l0.72,0.502c0.637,0.446,1.422,0.612,2.216,0.472
	c0.48-0.085,0.944-0.281,1.343-0.568c0.361-0.262,0.8-0.523,1.243-0.773c1.177-0.655,1.852-1.939,1.632-3.183l-0.151-0.857
	c-0.006-0.034-0.004,0.139-0.007,0.139c0.008-0.004,0.03,0.172,0.077,0.164l3.692-0.651c0.124-0.022-0.046-0.312,0.246-0.322
	l0.145,0.822c0.226,1.284,1.195,2.249,2.48,2.457c0.461,0.077,0.872,0.195,1.351,0.333c0.459,0.131,0.946,0.157,1.412,0.075
	c0.789-0.139,1.471-0.568,1.918-1.209l0.503-0.72c0.044-0.061,0.132-0.076,0.196-0.035l3.071,2.156
	c0.039,0.028,0.054,0.065,0.059,0.093s0.003,0.068-0.027,0.112l-0.508,0.733c-0.725,1.036-0.693,2.47,0.085,3.56
	c0.237,0.331,0.495,0.758,0.761,1.237c0.664,1.197,1.943,1.865,3.181,1.646l0.891-0.157c0,0-0.002-0.013-0.001-0.008l0.651,3.689
	c0.025,0.145,0.001,0.333-0.041,0.34l-0.815,0.144c-1.286,0.227-2.253,1.202-2.465,2.473c-0.058,0.337-0.137,0.626-0.243,0.981
	l-0.079,0.281C60.156,98.563,60.612,99.916,61.652,100.644z"/>
<path d="M48.485,86.348c-4.19,0-7.601,3.41-7.601,7.601c0,4.191,3.41,7.605,7.601,7.605c4.193,0,7.603-3.414,7.603-7.605
	C56.088,89.758,52.678,86.348,48.485,86.348z M48.485,99.152c-2.869,0-5.203-2.333-5.203-5.204c0-2.867,2.334-5.204,5.203-5.204
	c2.871,0,5.206,2.337,5.206,5.204C53.691,96.819,51.356,99.152,48.485,99.152z"/>
<path d="M68.468,65.585c-0.139-0.246-0.077-0.598,0.154-0.868l0.209-0.241c0.307-0.343,0.646-0.758,0.971-1.22
	c0.246-0.354,0.615-0.37,0.81-0.316l1.046,0.288c1.676,0.463,3.007-0.739,3.426-2.258l1.164-4.215
	c0.442-1.601-0.312-2.882-1.888-3.317l-1.022-0.282c-0.249-0.068-0.443-0.475-0.469-0.845c-0.043-0.768-0.114-1.438-0.213-2.019
	c-0.065-0.364,0.072-0.741,0.332-0.889l0.901-0.529c0.689-0.385,1.186-1.026,1.399-1.796c0.21-0.763,0.109-1.557-0.281-2.255
	l-2.158-3.8c-0.392-0.693-1.024-1.188-1.789-1.399c-0.758-0.209-1.558-0.109-2.249,0.28l-0.888,0.5
	c-0.197,0.108-0.404,0.086-0.505,0.058c-0.126-0.034-0.248-0.104-0.346-0.191c-0.484-0.425-0.967-0.843-1.556-1.244
	c-0.269-0.175-0.402-0.48-0.317-0.789l0.272-0.986c0.422-1.528-0.48-3.273-2.143-3.732l-4.22-1.165c-1.586-0.438-3,0.61-3.437,2.192
	l-0.272,0.986c-0.07,0.252-0.474,0.449-0.838,0.474c-0.701,0.043-1.407,0.11-2.02,0.229c-0.156,0.029-0.329,0.016-0.474-0.024
	c-0.128-0.035-0.317-0.113-0.416-0.303l-0.52-0.885c-0.386-0.685-1.026-1.185-1.785-1.395c-0.769-0.212-1.566-0.108-2.253,0.28
	l-3.806,2.154c-1.421,0.803-1.923,2.618-1.113,4.033l0.511,0.907c0.141,0.254,0.085,0.609-0.136,0.859
	c-0.478,0.549-0.938,1.23-1.272,1.73c-0.212,0.304-0.586,0.551-0.835,0.482l-1.022-0.282c-1.616-0.446-3.23,0.235-3.658,1.786
	l-1.164,4.215c-0.403,1.46,0.452,3.329,2.119,3.789l1.045,0.288c0.195,0.054,0.503,0.254,0.536,0.657
	c0.048,0.687,0.141,1.308,0.25,1.916c0.047,0.261-0.005,0.65-0.296,0.809l-0.966,0.545c-1.418,0.808-1.916,2.614-1.111,4.033
	l2.157,3.8c0.392,0.688,1.027,1.178,1.788,1.388c0.762,0.21,1.56,0.119,2.252-0.272l0.967-0.552c0.191-0.11,0.386-0.092,0.519-0.055
	c0.126,0.034,0.253,0.104,0.355,0.198c0.434,0.379,1.02,0.786,1.635,1.21c0.312,0.215,0.554,0.582,0.483,0.842l-0.302,1.094
	c-0.418,1.516,0.057,3.559,1.723,4.019l4.22,1.165c1.547,0.427,3.414-0.87,3.857-2.479l0.302-1.094
	c0.086-0.311,0.353-0.499,0.654-0.511c0.715-0.048,1.38-0.152,1.91-0.243c0.144-0.031,0.292-0.024,0.425,0.013
	c0.123,0.033,0.295,0.115,0.394,0.294l0.553,0.983c0.388,0.686,1.022,1.173,1.788,1.384c0.755,0.209,1.554,0.117,2.246-0.271
	l3.798-2.163c0.691-0.388,1.185-1.02,1.396-1.788c0.211-0.769,0.111-1.563-0.282-2.251L68.468,65.585z M66.035,66.971l0.544,0.957
	c0.022,0.035,0.026,0.076,0.013,0.122c-0.011,0.045-0.034,0.076-0.073,0.095l-3.804,2.166c-0.078,0.034-0.177,0-0.212-0.05
	l-0.548-0.985c-0.446-0.787-1.189-1.366-2.089-1.614c-0.528-0.146-1.1-0.176-1.648-0.075c-0.481,0.085-0.997,0.179-1.571,0.21
	c-1.503,0.096-2.728,1.117-3.131,2.578l-0.3,1.087c-0.039,0.141-0.42,0.622-0.559,0.583l-4.102-1.132
	c-0.069-0.02,0.039-0.536,0.086-0.707l0.302-1.094c0.392-1.418-0.25-2.975-1.551-3.872c-0.522-0.36-0.969-0.693-1.322-1.007
	c-0.418-0.37-0.931-0.637-1.464-0.784c-0.905-0.25-1.844-0.136-2.639,0.313l-0.978,0.556c-0.077,0.036-0.179,0.011-0.223-0.06
	l-2.162-3.808c-0.042-0.076-0.017-0.168,0.052-0.21l0.962-0.535c1.303-0.733,1.958-2.2,1.671-3.742
	c-0.091-0.518-0.179-1.044-0.217-1.575c-0.101-1.482-1.11-2.721-2.588-3.129l-0.994-0.274c-0.077-0.021-0.128-0.281-0.089-0.421
	l1.161-4.192c0.034-0.007,0.073,0.018,0.138,0.036l1.023,0.282c1.417,0.391,2.976-0.243,3.877-1.559
	c0.289-0.432,0.677-0.989,1.057-1.418c1.009-1.158,1.191-2.797,0.46-4.081l-0.515-0.908c-0.042-0.081-0.016-0.174,0.063-0.229
	l3.805-2.147c0.079-0.056,0.18-0.029,0.229,0.064l0.509,0.884c0.444,0.781,1.19,1.361,2.094,1.611
	c0.546,0.15,1.137,0.172,1.699,0.066c0.512-0.086,1.104-0.145,1.699-0.184c1.572-0.11,2.921-1.117,3.313-2.535l0.272-0.986
	c0.01-0.036-0.071,0.151-0.076,0.149c0.005,0-0.055,0.198-0.005,0.213l4.22,1.165c0.143,0.039,0.104-0.355,0.422-0.223l-0.26,0.944
	c-0.404,1.465,0.129,2.966,1.378,3.829c0.452,0.302,0.82,0.64,1.263,1.029c0.412,0.367,0.912,0.638,1.445,0.785
	c0.904,0.25,1.837,0.128,2.63-0.316l0.892-0.498c0.079-0.055,0.178-0.027,0.218,0.06l2.164,3.8c0.028,0.049,0.018,0.096,0.01,0.123
	c-0.009,0.033-0.022,0.075-0.08,0.105l-0.902,0.519c-1.29,0.74-1.967,2.257-1.695,3.798c0.082,0.475,0.146,1.042,0.18,1.692
	c0.098,1.59,1.111,2.936,2.528,3.327l1.015,0.28c0,0,0.007-0.024,0.004-0.016l-1.163,4.215c-0.044,0.16-0.166,0.346-0.206,0.335
	l-0.932-0.257c-1.472-0.407-2.98,0.146-3.843,1.373c-0.226,0.331-0.457,0.586-0.744,0.921l-0.222,0.243
	C65.503,64.026,65.308,65.674,66.035,66.971z"/>
<path d="M57.729,44.773c-4.713-1.301-9.606,1.476-10.909,6.194c-1.3,4.71,1.477,9.601,6.19,10.901
	c4.714,1.302,9.607-1.472,10.907-6.182C65.22,50.969,62.443,46.075,57.729,44.773z M53.753,59.179
	c-3.225-0.89-5.125-4.247-4.236-7.467c0.894-3.238,4.242-5.128,7.467-4.237c3.225,0.89,5.13,4.229,4.236,7.468
	C60.331,58.162,56.978,60.069,53.753,59.179z"/>
<path stroke="#000000" stroke-width="0.5" stroke-miterlimit="10" d="M33.558,75.812c-0.115-0.115-0.135-0.322-0.047-0.503
	l0.08-0.161c0.117-0.238,0.238-0.515,0.345-0.818c0.082-0.233,0.286-0.301,0.398-0.301h0.62c0.995,0,1.545-0.865,1.545-1.767v-2.497
	c0-0.947-0.61-1.543-1.545-1.543h-0.606c-0.146,0-0.315-0.191-0.385-0.396c-0.141-0.408-0.28-0.773-0.426-1.078
	c-0.091-0.189-0.072-0.421,0.047-0.54l0.418-0.426c0.319-0.32,0.495-0.747,0.495-1.199s-0.176-0.881-0.495-1.198l-1.768-1.771
	c-0.319-0.32-0.746-0.496-1.197-0.496c-0.452,0-0.876,0.176-1.195,0.495l-0.415,0.415c-0.09,0.09-0.207,0.103-0.271,0.103
	c-0.074,0-0.149-0.017-0.217-0.05c-0.331-0.162-0.664-0.314-1.047-0.448c-0.173-0.062-0.297-0.206-0.297-0.392v-0.58
	c0-0.904-0.762-1.727-1.747-1.727H23.35c-0.941,0-1.56,0.793-1.56,1.727v0.58c0,0.156-0.195,0.324-0.393,0.393
	c-0.377,0.133-0.755,0.277-1.078,0.434c-0.08,0.038-0.178,0.059-0.262,0.059c-0.079,0-0.194-0.018-0.278-0.1l-0.417-0.414
	c-0.32-0.32-0.746-0.494-1.199-0.494c-0.452,0-0.878,0.174-1.198,0.494l-1.769,1.77c-0.659,0.66-0.659,1.732,0,2.393l0.42,0.42
	c0.117,0.115,0.14,0.318,0.057,0.49c-0.179,0.373-0.329,0.826-0.44,1.146c-0.068,0.201-0.238,0.393-0.384,0.393h-0.606
	c-0.959,0-1.745,0.625-1.745,1.543v2.497c0,0.868,0.753,1.767,1.745,1.767h0.62c0.114,0,0.316,0.065,0.392,0.281
	c0.13,0.372,0.278,0.7,0.431,1.014c0.067,0.138,0.095,0.355-0.039,0.491l-0.452,0.446c-0.658,0.658-0.657,1.732,0,2.391l1.768,1.766
	c0.319,0.319,0.744,0.498,1.195,0.498c0.453,0,0.878-0.178,1.198-0.5l0.452-0.45c0.086-0.085,0.197-0.104,0.274-0.104
	c0.078,0,0.156,0.019,0.229,0.052c0.296,0.143,0.682,0.279,1.083,0.42c0.202,0.07,0.396,0.235,0.396,0.393v0.644
	c0,0.897,0.572,1.948,1.56,1.948h2.499c0.919,0,1.747-0.992,1.747-1.948v-0.644c0-0.185,0.119-0.328,0.284-0.387
	c0.389-0.135,0.736-0.289,1.016-0.424c0.074-0.033,0.16-0.053,0.235-0.053c0.075,0,0.183,0.018,0.265,0.098l0.45,0.455
	c0.32,0.32,0.745,0.498,1.195,0.498c0.452,0,0.876-0.178,1.196-0.498l1.766-1.766c0.319-0.32,0.495-0.746,0.495-1.197
	c0-0.451-0.176-0.878-0.496-1.196L33.558,75.812z M32.427,76.941l0.445,0.444c0.019,0.02,0.028,0.041,0.028,0.067
	c0,0.025-0.009,0.048-0.028,0.065l-1.765,1.767c-0.036,0.037-0.097,0.034-0.126,0.004l-0.449-0.455
	c-0.37-0.369-0.865-0.572-1.396-0.572c-0.313,0-0.632,0.075-0.921,0.214c-0.251,0.119-0.521,0.244-0.833,0.354
	c-0.814,0.281-1.334,1.025-1.334,1.896v0.641c0,0.08-0.138,0.403-0.216,0.403h-2.434c-0.043,0-0.06-0.3-0.06-0.4v-0.644
	c0-0.841-0.592-1.605-1.442-1.904c-0.346-0.119-0.641-0.234-0.883-0.35c-0.286-0.137-0.61-0.211-0.924-0.211
	c-0.537,0-1.038,0.204-1.409,0.574l-0.452,0.451c-0.036,0.038-0.097,0.039-0.133,0.001l-1.768-1.765
	c-0.037-0.035-0.037-0.091-0.006-0.121l0.451-0.442c0.604-0.604,0.742-1.515,0.352-2.317c-0.13-0.271-0.257-0.545-0.36-0.838
	c-0.281-0.8-1.028-1.323-1.9-1.323h-0.593c-0.046,0-0.11-0.138-0.11-0.225l0.001-2.485c0.016-0.006,0.043-0.001,0.082-0.001h0.606
	c0.838,0,1.6-0.586,1.896-1.446c0.097-0.281,0.226-0.646,0.369-0.943c0.378-0.785,0.231-1.718-0.368-2.317l-0.419-0.421
	c-0.036-0.035-0.036-0.097,0-0.131l1.769-1.77c0.036-0.035,0.096-0.036,0.134,0.002l0.415,0.412c0.366,0.367,0.863,0.566,1.4,0.566
	c0.325,0,0.653-0.074,0.947-0.217c0.267-0.131,0.586-0.252,0.906-0.364c0.848-0.294,1.44-1.06,1.44-1.901v-0.58
	c0-0.022-0.019,0.091-0.021,0.091c0.006-0.002,0,0.116,0.032,0.116h2.499c0.084,0,0.006-0.21,0.199-0.183v0.556
	c0,0.869,0.524,1.615,1.344,1.9c0.294,0.104,0.55,0.229,0.849,0.375c0.287,0.14,0.603,0.213,0.918,0.213
	c0.534,0,1.031-0.202,1.399-0.571l0.414-0.415c0.036-0.034,0.096-0.034,0.132,0l1.767,1.771c0.022,0.022,0.028,0.049,0.028,0.067
	s-0.005,0.045-0.031,0.07l-0.418,0.423c-0.596,0.596-0.741,1.541-0.356,2.347c0.117,0.245,0.237,0.556,0.356,0.9
	c0.297,0.862,1.06,1.449,1.898,1.449h0.603c0,0,0-0.009,0-0.005v2.497c0,0.099-0.038,0.219-0.065,0.219h-0.552
	c-0.871,0-1.619,0.528-1.905,1.339c-0.077,0.215-0.163,0.395-0.273,0.615l-0.085,0.176C31.686,75.402,31.828,76.343,32.427,76.941z"
	/>
<path d="M24.432,65.933c-2.794,0-5.067,2.273-5.067,5.066c0,2.795,2.273,5.07,5.067,5.07c2.795,0,5.068-2.275,5.068-5.07
	C29.5,68.206,27.227,65.933,24.432,65.933z M24.432,74.469c-1.913,0-3.469-1.556-3.469-3.47c0-1.911,1.556-3.469,3.469-3.469
	c1.914,0,3.47,1.558,3.47,3.469C27.902,72.913,26.346,74.469,24.432,74.469z"/>
<g>
	
		<text transform="matrix(0.9999 0.0139 -0.0139 0.9999 136.6387 59.0107)" fill="#CCCCCC" stroke="#000000" stroke-width="0.5" stroke-miterlimit="10" font-family="'NanamiHMSolidThin'" font-size="18">{</text>
</g>
<g>
	
		<text transform="matrix(0.9999 0.016 -0.016 0.9999 153.5 106.5371)" fill="#252D3A" stroke="#000000" stroke-width="0.25" stroke-miterlimit="10" font-family="'NanamiHMSolidMedium'" font-size="22">;</text>
</g>
<g>
	<text transform="matrix(1 0.0021 -0.0021 1 134.5 109.9331)" fill="#252D3A" font-family="'NanamiHMSolidMedium'" font-size="18">@</text>
</g>
<g>
	<text transform="matrix(1 0.0021 -0.0021 1 115.5 126.9331)" fill="#252D3A" font-family="'NanamiHMSolidBook'" font-size="18"># !</text>
</g>
<ellipse fill="none" stroke="#000000" stroke-width="0.5" stroke-miterlimit="10" cx="87.03" cy="20.805" rx="2.34" ry="2.507"/>
<ellipse fill="none" stroke="#000000" stroke-width="0.5" stroke-miterlimit="10" cx="130.5" cy="21.425" rx="2.34" ry="2.507"/>
<ellipse fill="none" stroke="#000000" stroke-width="0.5" stroke-miterlimit="10" cx="99.84" cy="36.411" rx="2.34" ry="2.507"/>
<ellipse fill="none" stroke="#000000" stroke-width="0.5" stroke-miterlimit="10" cx="109.159" cy="36.425" rx="2.34" ry="2.507"/>
<ellipse fill="none" stroke="#000000" stroke-width="0.5" stroke-miterlimit="10" cx="137.159" cy="35.932" rx="2.34" ry="2.507"/>
<ellipse fill="none" stroke="#000000" stroke-width="0.5" stroke-miterlimit="10" cx="146.478" cy="35.947" rx="2.34" ry="2.507"/>
<ellipse fill="none" stroke="#000000" stroke-width="0.5" stroke-miterlimit="10" cx="106.84" cy="54.411" rx="2.34" ry="2.507"/>
<ellipse fill="none" stroke="#000000" stroke-width="0.5" stroke-miterlimit="10" cx="117.84" cy="54.425" rx="2.34" ry="2.507"/>
<ellipse fill="none" stroke="#000000" stroke-width="0.5" stroke-miterlimit="10" cx="128.84" cy="54.44" rx="2.34" ry="2.507"/>
<ellipse fill="none" stroke="#000000" stroke-width="0.5" stroke-miterlimit="10" cx="148.84" cy="54.44" rx="2.34" ry="2.507"/>
<ellipse fill="none" stroke="#000000" stroke-width="0.5" stroke-miterlimit="10" cx="159.159" cy="54.425" rx="2.34" ry="2.507"/>
<text transform="matrix(0.9991 0.0414 -0.0414 0.9991 114.5005 42.8706)" font-family="'NanamiHMSolidBook'" font-size="20">( )</text>
<g>
	
		<text transform="matrix(1.0242 0.0121 -0.0125 0.9999 130.5005 98.9326)" stroke="#000000" stroke-width="0.25" stroke-miterlimit="10" font-family="'NanamiHMSolidMedium'" font-size="19.5252">“ ”</text>
</g>
<g>
	<text transform="matrix(1 -0.0035 0.0035 1 120.5 75.9321)" font-family="'NanamiHMSolidMedium'" font-size="20">&lt; &gt;</text>
</g>
<g>
	
		<text transform="matrix(0.9991 0.0414 -0.0414 0.9991 139.9302 144.3237)" fill="#CCCCCC" stroke="#000000" stroke-width="0.5" stroke-miterlimit="10" font-family="'NanamiHMSolidThin'" font-size="18">}</text>
</g>
<ellipse fill="none" stroke="#000000" stroke-width="0.5" stroke-miterlimit="10" cx="104.84" cy="71.396" rx="2.34" ry="2.507"/>
<ellipse fill="none" stroke="#000000" stroke-width="0.5" stroke-miterlimit="10" cx="115.84" cy="71.411" rx="2.34" ry="2.507"/>
<ellipse fill="none" stroke="#000000" stroke-width="0.5" stroke-miterlimit="10" cx="157.84" cy="71.425" rx="2.34" ry="2.507"/>
<ellipse fill="none" stroke="#000000" stroke-width="0.5" stroke-miterlimit="10" cx="168.159" cy="71.411" rx="2.34" ry="2.507"/>
<ellipse fill="none" stroke="#000000" stroke-width="0.5" stroke-miterlimit="10" cx="112.5" cy="86.411" rx="2.34" ry="2.507"/>
<ellipse fill="none" stroke="#000000" stroke-width="0.5" stroke-miterlimit="10" cx="123.5" cy="86.425" rx="2.34" ry="2.507"/>
<ellipse fill="none" stroke="#000000" stroke-width="0.5" stroke-miterlimit="10" cx="157.84" cy="86.455" rx="2.34" ry="2.507"/>
<ellipse fill="none" stroke="#000000" stroke-width="0.5" stroke-miterlimit="10" cx="168.159" cy="86.44" rx="2.34" ry="2.507"/>
<ellipse fill="none" stroke="#000000" stroke-width="0.5" stroke-miterlimit="10" cx="166.159" cy="102.44" rx="2.34" ry="2.507"/>
<ellipse fill="none" stroke="#000000" stroke-width="0.5" stroke-miterlimit="10" cx="164.159" cy="120.425" rx="2.34" ry="2.507"/>
<ellipse fill="none" stroke="#000000" stroke-width="0.5" stroke-miterlimit="10" cx="109.159" cy="121.44" rx="2.34" ry="2.507"/>
<ellipse fill="none" stroke="#000000" stroke-width="0.5" stroke-miterlimit="10" cx="118.159" cy="102.932" rx="2.34" ry="2.507"/>
<ellipse fill="none" stroke="#000000" stroke-width="0.5" stroke-miterlimit="10" cx="129.159" cy="102.947" rx="2.34" ry="2.507"/>
<ellipse fill="none" stroke="#000000" stroke-width="0.5" stroke-miterlimit="10" cx="142.84" cy="120.411" rx="2.34" ry="2.507"/>
<ellipse fill="none" stroke="#000000" stroke-width="0.5" stroke-miterlimit="10" cx="153.84" cy="120.425" rx="2.34" ry="2.507"/>
<g>
	<text transform="matrix(1 -0.0035 0.0035 1 91.5 25.9321)" font-family="'NanamiHMSolidMedium'" font-size="20">&lt;/&gt;</text>
</g>
<ellipse fill="none" stroke="#000000" stroke-width="0.5" stroke-miterlimit="10" cx="108.159" cy="137.44" rx="2.34" ry="2.507"/>
<ellipse fill="none" stroke="#000000" stroke-width="0.5" stroke-miterlimit="10" cx="120.84" cy="137.455" rx="2.34" ry="2.507"/>
<ellipse fill="none" stroke="#000000" stroke-width="0.5" stroke-miterlimit="10" cx="132.84" cy="137.44" rx="2.34" ry="2.507"/>
<ellipse fill="none" stroke="#000000" stroke-width="0.5" stroke-miterlimit="10" cx="152.84" cy="137.455" rx="2.34" ry="2.507"/>
</svg>
