<?xml version="1.0" encoding="utf-8"?>
<!-- Generator: Adobe Illustrator 15.1.0, SVG Export Plug-In  -->
<!DOCTYPE svg PUBLIC "-//W3C//DTD SVG 1.1//EN" "http://www.w3.org/Graphics/SVG/1.1/DTD/svg11.dtd" [
	<!ENTITY ns_flows "http://ns.adobe.com/Flows/1.0/">
]>
<svg version="1.1"
	 xmlns="http://www.w3.org/2000/svg" xmlns:xlink="http://www.w3.org/1999/xlink" xmlns:a="http://ns.adobe.com/AdobeSVGViewerExtensions/3.0/"
	 x="0px" y="0px" width="153px" height="154px" viewBox="0 0 153 154" enable-background="new 0 0 153 154" xml:space="preserve">
<defs>
</defs>
<path fill="#252D3A" d="M153.445,74.673c-1.03-45.424-37.969-64.143-37.969-64.143C104.096,3.845,90.85,0.003,76.723,0.003
	c-46.142-0.42-66.217,37.766-66.217,37.766C4.111,48.652,0.32,61.673,0,74.673l0.014,5c1.817,45.576,40.317,75.076,76.709,73.822
	c31.858,2.004,74.608-23.496,76.709-73.822L153.445,74.673z M76.723,4.133c38.264,0,69.705,29.748,72.422,67.329
	c-27.563-29.624-58.188-33.124-72.422-33.057c-38.142-0.317-63.42,23.27-72.422,33.057C7.018,33.881,38.461,4.133,76.723,4.133z
	 M147.931,77.014c0.161,1.197-1.696,2.659-1.696,2.659c-24.653,28.166-51.903,31.041-69.512,31.217
	C43.988,109.37,23.331,95.339,7.211,79.673c0,0-1.422-1.188-1.706-2.41c-0.258-1.108,1.247-2.59,1.247-2.59
	c7.234-8,34.204-32.584,69.971-32.138c13.729,0,27.01,3.004,39.262,8.943c11.847,5.61,23.475,15.194,30.709,23.194
	C146.693,74.673,147.77,75.817,147.931,77.014z M76.723,149.366c-38.289,0-69.748-29.789-72.428-67.407
	c8.984,9.768,32.453,31.875,72.428,33.063c31.608-0.557,51.983-10.807,72.428-33.063
	C146.471,119.577,115.012,149.366,76.723,149.366z"/>
<rect x="31.081" y="54.25" fill="none" stroke="#252D3A" stroke-width="3" stroke-miterlimit="10" width="93" height="45"/>
<line fill="none" stroke="#252D3A" stroke-width="3" stroke-miterlimit="10" x1="90.081" y1="100.75" x2="90.081" y2="54.75"/>
<line fill="none" stroke="#252D3A" stroke-width="3" stroke-miterlimit="10" x1="123.581" y1="72.25" x2="89.581" y2="72.25"/>
<line fill="none" stroke="#252D3A" stroke-width="3" stroke-miterlimit="10" x1="102.081" y1="72.75" x2="102.081" y2="54.75"/>
<path fill="#252D3A" d="M10.04,74.672c0,0-0.086,0.006-0.043,0.003"/>
</svg>
