<?xml version="1.0" encoding="utf-8"?>
<!-- Generator: Adobe Illustrator 15.1.0, SVG Export Plug-In  -->
<!DOCTYPE svg PUBLIC "-//W3C//DTD SVG 1.1//EN" "http://www.w3.org/Graphics/SVG/1.1/DTD/svg11.dtd" [
	<!ENTITY ns_flows "http://ns.adobe.com/Flows/1.0/">
]>
<svg version="1.1"
	 xmlns="http://www.w3.org/2000/svg" xmlns:xlink="http://www.w3.org/1999/xlink" xmlns:a="http://ns.adobe.com/AdobeSVGViewerExtensions/3.0/"
	 x="0px" y="0px" width="181px" height="181px" viewBox="0 0 181 181" enable-background="new 0 0 181 181" xml:space="preserve">
<defs>
</defs>
<path fill="#252D3A" d="M90.565,0C40.628,0,0,40.627,0,90.564s40.628,90.564,90.565,90.564s90.564-40.627,90.564-90.564
	S140.503,0,90.565,0z M175.304,107.636c-2.893-1.661-6.24-2.616-9.809-2.616c-9.447,0-17.363,6.664-19.305,15.537L94.913,10.764
	c0.757-2.015,1.19-4.186,1.245-6.448c27.146,1.742,50.92,16.071,65.536,37.2c0.301,0.434,0.598,0.871,0.891,1.313
	c8.168,12.282,13.279,26.762,14.242,42.348C176.898,86.328,177.618,99.225,175.304,107.636z M90.565,177.313
	c-27.425,0-51.905-12.824-67.751-32.824h14.671c0.381,0,0.767,0.079,1.16,0.079s0.779-0.079,1.16-0.079h74.379
	c0.381,0,0.768,0.079,1.16,0.079c0.395,0,0.779-0.079,1.161-0.079h41.811C142.47,164.488,117.99,177.313,90.565,177.313z
	 M4.368,96.976c-0.098-1.327-0.438-10.112-0.065-11.8c2.087-33.752,23.629-62.319,53.522-74.6
	C60.588,18.164,67.873,23.6,76.405,23.6c1.203,0,2.381-0.114,3.525-0.321l-45.019,97.158c-1.986-8.813-9.872-15.417-19.276-15.417
	c-3.568,0-6.916,0.955-9.809,2.616C5.126,104.152,4.635,100.595,4.368,96.976z M90.565,4.129c0.49,0,0.979,0.011,1.467,0.02
	c-0.168,8.477-7.111,15.32-15.627,15.32c-6.775,0-12.555-4.332-14.721-10.371C70.72,5.885,80.44,4.129,90.565,4.129z
	 M39.523,140.488h-1.757c-2.511-1-4.432-2.824-4.432-5.452c0-0.709,0.143-1.495,0.395-2.112c0.055-0.133,0.116-0.316,0.18-0.443
	c0.877-1.73,2.668-2.948,4.736-2.948c2.928,0,5.31,2.589,5.31,5.517C43.955,137.678,42.034,139.488,39.523,140.488z M29.924,138.861
	c0.237,0.572,0.529,0.627,0.87,1.627h-2.613C28.795,139.488,29.375,139.437,29.924,138.861z M38.646,125.375
	c-0.523,0-1.032,0.374-1.531,0.456l15.135-32.343h49.313l15.24,32.331c-0.476-0.073-0.96-0.284-1.457-0.284
	c-5.205,0-9.439,4.376-9.439,9.581c0,1.934,0.586,3.372,1.588,5.372H46.497c1.002-2,1.588-3.519,1.588-5.452
	C48.085,129.831,43.851,125.375,38.646,125.375z M76.815,39.597l22.819,48.892H54.162L76.815,39.597z M116.224,140.488h-1.757
	c-2.511-1-4.432-2.824-4.432-5.452c0-2.929,2.382-5.421,5.31-5.421c1.883,0,3.536,0.933,4.479,2.414l0.334,0.688l0.042-0.032
	c0.29,0.656,0.455,1.595,0.455,2.357C120.655,137.671,118.734,139.488,116.224,140.488z M124.785,135.183
	c0-1.282-0.259-2.694-0.724-3.694h22.539l0.955,1.9l0.065,0.117c1.257,2.654,3.085,4.982,5.328,6.982h-29.752
	C124.198,138.488,124.785,137.116,124.785,135.183z M122.091,127.488l-4.13-9h22.577l4.133,9H122.091z M116.033,114.488l-4.13-9
	h22.572l4.134,9H116.033z M109.976,101.488l-3.855-8h22.569l3.858,8H109.976z M104.192,88.488l-4.405-9h22.565l4.408,9H104.192z
	 M97.859,75.488l-4.131-9h22.562l4.133,9H97.859z M91.801,62.488l-4.13-9h22.557l4.134,9H91.801z M85.743,49.488l-4.131-9h22.554
	l4.133,9H85.743z M79.686,36.488l-0.599-1.357l3.506-7.643h15.511l4.134,9H79.686z M84.507,23.488l0.816-1.893
	c2.852-1.448,5.307-3.502,7.156-6.084l3.695,7.977H84.507z M15.636,109.149c8.621,0,15.635,7.014,15.635,15.635
	c0,7.239-4.946,13.343-11.636,15.114c-5.845-8.377-10.247-17.83-12.839-28.002C9.313,110.165,12.356,109.149,15.636,109.149z
	 M161.496,139.898c-6.69-1.771-11.636-7.875-11.636-15.114c0-8.621,7.014-15.635,15.635-15.635c3.278,0,6.322,1.016,8.839,2.747
	C171.743,122.068,167.341,131.521,161.496,139.898z"/>
<text transform="matrix(1 -0.0049 0.0049 1 135.5723 80.9453)" fill="#252D3A" font-family="'TimesNewRomanPSMT'" font-size="36">Ж</text>
<text transform="matrix(1 0 0 1 74.8682 171.1616)" fill="#252D3A" font-family="'KozGoPro-Regular-90ms-RKSJ-H'" font-size="28">は</text>
<text transform="matrix(1.0116 0 0 1 14.8682 76.1621)" fill="#252D3A" font-family="'Andalus'" font-size="40">ﺵ</text>
</svg>
